<svg xmlns="http://www.w3.org/2000/svg" viewBox="0 0 256 256" role="img" aria-label="Math Card Studio icon">
  <defs>
    <linearGradient id="bg" x1="44" y1="28" x2="212" y2="228" gradientUnits="userSpaceOnUse">
      <stop offset="0" stop-color="#e0f2fe" />
      <stop offset="0.54" stop-color="#f0fdfa" />
      <stop offset="1" stop-color="#f5f3ff" />
    </linearGradient>
    <linearGradient id="card" x1="74" y1="54" x2="188" y2="202" gradientUnits="userSpaceOnUse">
      <stop offset="0" stop-color="#ffffff" />
      <stop offset="1" stop-color="#f8fbff" />
    </linearGradient>
    <filter id="softShadow" x="-20%" y="-20%" width="140%" height="150%" color-interpolation-filters="sRGB">
      <feDropShadow dx="0" dy="14" stdDeviation="14" flood-color="#7dd3fc" flood-opacity="0.22" />
    </filter>
  </defs>

  <rect width="256" height="256" rx="58" fill="url(#bg)" />
  <circle cx="198" cy="54" r="18" fill="#bae6fd" opacity="0.72" />
  <circle cx="52" cy="203" r="22" fill="#ccfbf1" opacity="0.82" />
  <path d="M46 73c18-18 44-27 72-24" fill="none" stroke="#c4b5fd" stroke-width="10" stroke-linecap="round" opacity="0.46" />

  <g filter="url(#softShadow)">
    <rect x="62" y="48" width="132" height="160" rx="28" fill="url(#card)" stroke="#ffffff" stroke-width="8" />
    <rect x="82" y="73" width="92" height="12" rx="6" fill="#bae6fd" />
    <rect x="82" y="94" width="56" height="10" rx="5" fill="#ccfbf1" />
    <rect x="82" y="166" width="92" height="10" rx="5" fill="#ddd6fe" opacity="0.72" />

    <path
      d="M82 139c13-29 26-43 39-43 17 0 18 54 35 54 11 0 20-18 30-46"
      fill="none"
      stroke="#38bdf8"
      stroke-width="10"
      stroke-linecap="round"
      stroke-linejoin="round"
    />
    <circle cx="121" cy="96" r="7" fill="#99f6e4" stroke="#ffffff" stroke-width="4" />
    <circle cx="156" cy="150" r="7" fill="#fcd34d" stroke="#ffffff" stroke-width="4" />
  </g>

  <path d="M206 142l5 12 12 5-12 5-5 12-5-12-12-5 12-5 5-12z" fill="#67e8f9" />
</svg>
